<svg aria-hidden="true" style="position: absolute; width: 0; height: 0; overflow: hidden;" version="1.1" xmlns="http://www.w3.org/2000/svg" xmlns:xlink="http://www.w3.org/1999/xlink">
<defs>
<symbol id="letters-hover" viewBox="0 0 43 32">
<path  d="M38.667 0h-34.667c-2.206 0-4 1.794-4 4v24c0 2.206 1.794 4 4 4h34.667c2.206 0 4-1.794 4-4v-24c0-2.206-1.794-4-4-4zM38.667 2.667c0.181 0 0.353 0.038 0.511 0.103l-17.844 15.466-17.844-15.466c0.158-0.066 0.33-0.103 0.511-0.103h34.667zM38.667 29.333h-34.667c-0.736 0-1.333-0.598-1.333-1.333v-22.413l17.793 15.421c0.251 0.217 0.563 0.326 0.874 0.326s0.622-0.108 0.874-0.326l17.793-15.421v22.413c0 0.736-0.598 1.333-1.333 1.333z"></path>
</symbol>
<symbol id="icon-clubs" viewBox="0 0 32 32">
<path d="M24.588 12.274c-1.845 0-3.503 0.769-4.683 2.022-0.5 0.531-1.368 1.16-2.306 1.713 0.441-1.683 1.834-3.803 2.801-4.733 1.239-1.193 2-2.87 2-4.734 0-3.59-2.859-6.503-6.4-6.541-3.541 0.038-6.4 2.951-6.4 6.541 0 1.865 0.761 3.542 2 4.734 0.967 0.93 2.36 3.050 2.801 4.733-0.939-0.553-1.806-1.182-2.306-1.713-1.18-1.253-2.838-2.022-4.683-2.022-3.575 0-6.471 2.927-6.471 6.541s2.897 6.542 6.471 6.542c1.845 0 3.503-0.792 4.683-2.045 0.525-0.558 1.451-1.254 2.447-1.832-0.094 4.615-2.298 8.005-4.541 9.341v1.179h12v-1.179c-2.244-1.335-4.448-4.726-4.541-9.341 0.995 0.578 1.922 1.274 2.447 1.832 1.18 1.253 2.838 2.045 4.683 2.045 3.575 0 6.471-2.928 6.471-6.542s-2.897-6.541-6.471-6.541z"></path>
</symbol>
</defs>
</svg>
