<svg aria-hidden="true" style="position: absolute; width: 0; height: 0; overflow: hidden;" version="1.1" xmlns="http://www.w3.org/2000/svg" xmlns:xlink="http://www.w3.org/1999/xlink">
<defs>
<symbol id="icon-phone" viewBox="0 0 20 32">
<path fill="#757575" style="fill: var(--color1, #757575)" d="M17 0h-14c-1.654 0-3 1.346-3 3v26c0 1.654 1.346 3 3 3h14c1.654 0 3-1.346 3-3v-26c0-1.654-1.346-3-3-3zM3 2h14c0.552 0 1 0.448 1 1v21h-16v-21c0-0.552 0.448-1 1-1zM17 30h-14c-0.552 0-1-0.448-1-1v-3h16v3c0 0.552-0.448 1-1 1z"></path>
</symbol>
<symbol id="icon-clubs" viewBox="0 0 32 32">
<path d="M24.588 12.274c-1.845 0-3.503 0.769-4.683 2.022-0.5 0.531-1.368 1.16-2.306 1.713 0.441-1.683 1.834-3.803 2.801-4.733 1.239-1.193 2-2.87 2-4.734 0-3.59-2.859-6.503-6.4-6.541-3.541 0.038-6.4 2.951-6.4 6.541 0 1.865 0.761 3.542 2 4.734 0.967 0.93 2.36 3.050 2.801 4.733-0.939-0.553-1.806-1.182-2.306-1.713-1.18-1.253-2.838-2.022-4.683-2.022-3.575 0-6.471 2.927-6.471 6.541s2.897 6.542 6.471 6.542c1.845 0 3.503-0.792 4.683-2.045 0.525-0.558 1.451-1.254 2.447-1.832-0.094 4.615-2.298 8.005-4.541 9.341v1.179h12v-1.179c-2.244-1.335-4.448-4.726-4.541-9.341 0.995 0.578 1.922 1.274 2.447 1.832 1.18 1.253 2.838 2.045 4.683 2.045 3.575 0 6.471-2.928 6.471-6.542s-2.897-6.541-6.471-6.541z"></path>
</symbol>
</defs>
</svg>
