<svg aria-hidden="true" style="position:absolute;width:0;height:0;overflow:hidden" xmlns="http://www.w3.org/2000/svg">
    <defs>
        <symbol id="icon-envelope" viewBox="0 0 43 32">
            <path  d="M38.667 0H4C1.794 0 0 1.794 0 4v24c0 2.206 1.794 4 4 4h34.667c2.206 0 4-1.794 4-4V4c0-2.206-1.794-4-4-4zm0 2.667c.181 0 .353.038.511.103L21.334 18.236 3.49 2.77a1.32 1.32 0 0 1 .511-.103h34.667zm0 26.666H4A1.334 1.334 0 0 1 2.667 28V5.587L20.46 21.008a1.335 1.335 0 0 0 1.748 0L40.001 5.587V28c0 .736-.598 1.333-1.333 1.333z"/>
        </symbol>
        <symbol id="icon-phone" viewBox="0 0 20 32">
            <path  d="M17 0H3C1.346 0 0 1.346 0 3v26c0 1.654 1.346 3 3 3h14c1.654 0 3-1.346 3-3V3c0-1.654-1.346-3-3-3zM3 2h14a1 1 0 0 1 1 1v21H2V3a1 1 0 0 1 1-1zm14 28H3a1 1 0 0 1-1-1v-3h16v3a1 1 0 0 1-1 1z"/>
        </symbol>
        <symbol id="icon-clubs" viewBox="0 0 32 32">
            <path d="M24.588 12.274a6.397 6.397 0 0 0-4.683 2.022c-.5.531-1.368 1.16-2.306 1.713.441-1.683 1.834-3.803 2.801-4.733a6.538 6.538 0 0 0 2-4.734c0-3.59-2.859-6.503-6.4-6.541-3.541.038-6.4 2.951-6.4 6.541 0 1.865.761 3.542 2 4.734.967.93 2.36 3.05 2.801 4.733-.939-.553-1.806-1.182-2.306-1.713a6.397 6.397 0 0 0-4.683-2.022c-3.575 0-6.471 2.927-6.471 6.541s2.897 6.542 6.471 6.542c1.845 0 3.503-.792 4.683-2.045.525-.558 1.451-1.254 2.447-1.832-.094 4.615-2.298 8.005-4.541 9.341V32h12v-1.179c-2.244-1.335-4.448-4.726-4.541-9.341.995.578 1.922 1.274 2.447 1.832 1.18 1.253 2.838 2.045 4.683 2.045 3.575 0 6.471-2.928 6.471-6.542s-2.897-6.541-6.471-6.541z"/>
        </symbol>
    </defs>
</svg>